<svg width="1011" height="208" viewBox="0 0 1011 208" fill="none" xmlns="http://www.w3.org/2000/svg">
<path d="M224.946 173.917C212.732 163.063 206.623 149.135 206.623 132.141C206.623 115.104 212.977 101.125 225.68 90.2031C238.42 79.2448 254.16 73.7656 272.904 73.7656C291.331 73.7656 306.863 79.2761 319.498 90.3073C332.17 101.302 338.503 115.245 338.503 132.141C338.503 148.995 332.326 162.891 319.972 173.813C307.613 184.74 291.925 190.198 272.904 190.198C253.186 190.198 237.196 184.771 224.946 173.917ZM254.316 113.448C249.394 118.302 246.936 124.531 246.936 132.141C246.936 139.714 249.29 145.891 254.003 150.672C258.748 155.453 264.982 157.844 272.696 157.844C280.128 157.844 286.238 155.417 291.019 150.568C295.8 145.682 298.191 139.521 298.191 132.089C298.191 124.51 295.732 118.302 290.811 113.448C285.889 108.599 279.847 106.172 272.696 106.172C265.399 106.172 259.274 108.599 254.316 113.448ZM359.941 15.651C364.373 11.2187 369.66 9 375.805 9C381.982 9 387.29 11.2187 391.722 15.651C396.154 20.0833 398.368 25.3854 398.368 31.5677C398.368 37.7083 396.154 42.9948 391.722 47.4271C387.29 51.8281 381.982 54.0261 375.805 54.0261C369.66 54.0261 364.373 51.8281 359.941 47.4271C355.509 42.9948 353.295 37.7083 353.295 31.5677C353.295 25.3854 355.509 20.0833 359.941 15.651ZM356.331 77.0104V187.005H394.285V77.0104H356.331ZM421.092 187.005V77.0104H459.05V88.5782H459.467C469.347 78.7031 479.852 73.7656 490.988 73.7656C496.43 73.7656 501.821 74.4792 507.165 75.9115C512.54 77.3386 517.686 79.5573 522.607 82.5573C527.566 85.5625 531.576 89.8177 534.649 95.3334C537.722 100.849 539.259 107.255 539.259 114.547V187.005H501.3V124.807C501.3 119.083 499.467 114.094 495.8 109.833C492.17 105.542 487.425 103.396 481.561 103.396C475.837 103.396 470.654 105.615 466.014 110.047C461.368 114.479 459.05 119.401 459.05 124.807V187.005H421.092ZM590.691 77.0104L617.498 136.849L644.305 77.0104H689.331L630.378 187.005H604.618L545.67 77.0104H590.691ZM809.248 137.271H729.456C729.456 144.984 731.956 150.708 736.946 154.443C741.972 158.141 747.415 159.99 753.279 159.99C759.425 159.99 764.274 159.172 767.837 157.531C771.394 155.891 775.477 152.625 780.087 147.74L807.519 161.51C796.071 180.635 777.05 190.198 750.451 190.198C733.873 190.198 719.649 184.526 707.785 173.188C695.915 161.807 689.983 148.125 689.983 132.141C689.983 116.12 695.915 102.385 707.785 90.9375C719.649 79.4896 733.873 73.7656 750.451 73.7656C767.904 73.7656 782.092 78.8073 793.019 88.8959C803.977 98.9792 809.457 113.38 809.457 132.089C809.457 134.667 809.389 136.396 809.248 137.271ZM730.503 116.224H772.337C771.467 110.5 769.212 106.099 765.581 103.031C761.951 99.9584 757.274 98.4219 751.55 98.4219C745.269 98.4219 740.259 100.078 736.524 103.396C732.826 106.677 730.821 110.953 730.503 116.224ZM827.253 187.005V77.0104H865.207V92.875H865.628C865.904 92.2813 866.363 91.5625 866.988 90.724C867.654 89.8542 869.05 88.3542 871.175 86.224C873.342 84.0573 875.628 82.125 878.035 80.4115C880.477 78.7031 883.618 77.1667 887.462 75.8073C891.331 74.4427 895.279 73.7656 899.29 73.7656C903.446 73.7656 907.514 74.3386 911.493 75.4896C915.503 76.6406 918.436 77.7969 920.285 78.9479L923.321 80.6198L907.462 112.818C902.712 108.807 896.134 106.797 887.722 106.797C883.149 106.797 879.206 107.813 875.889 109.833C872.608 111.823 870.29 114.25 868.925 117.115C867.597 119.974 866.639 122.401 866.045 124.391C865.488 126.38 865.207 127.948 865.207 129.104V187.005H827.253ZM940.483 77.0104V36.0156H978.441V77.0104H1001.58V105.964H978.441V140.88C978.441 151.037 981.285 156.12 986.977 156.12C988.41 156.12 989.91 155.839 991.477 155.281C993.087 154.688 994.306 154.109 995.144 153.552L996.451 152.714L1005.88 183.344C997.707 187.917 988.41 190.198 977.972 190.198C970.852 190.198 964.707 188.964 959.54 186.484C954.41 183.969 950.519 180.604 947.868 176.38C945.217 172.156 943.311 167.724 942.16 163.078C941.045 158.438 940.483 153.484 940.483 148.214V105.964H924.623V77.0104H940.483Z" stroke="#FF4E17" stroke-width="8.04185"/>
<mask id="path-2-outside-1_305_109" maskUnits="userSpaceOnUse" x="0" y="0.15625" width="204" height="208" fill="black">
<rect fill="white" y="0.15625" width="204" height="208"/>
<path fill-rule="evenodd" clip-rule="evenodd" d="M111.465 107.346L184.693 174.314C183.419 175.34 182.12 176.338 180.793 177.307C179.467 178.277 178.114 179.217 176.737 180.129C175.358 181.038 173.958 181.919 172.532 182.768C171.106 183.616 169.659 184.434 168.19 185.219C166.719 186.005 165.23 186.759 163.719 187.478C162.209 188.199 160.68 188.886 159.131 189.539C157.585 190.194 156.02 190.813 154.439 191.397C152.858 191.984 151.262 192.533 149.65 193.049C148.038 193.564 146.416 194.043 144.779 194.488C143.142 194.932 141.494 195.339 139.833 195.711C138.174 196.083 136.506 196.42 134.829 196.718C133.153 197.017 131.467 197.279 129.775 197.505C128.084 197.73 126.387 197.919 124.685 198.07C122.985 198.221 121.279 198.333 119.571 198.409C117.864 198.486 116.154 198.525 114.445 198.526C112.736 198.528 111.026 198.492 109.317 198.419C107.609 198.346 105.905 198.235 104.203 198.088C102.501 197.94 100.804 197.755 99.1111 197.532C97.4197 197.31 95.7338 197.051 94.057 196.756C92.3783 196.459 90.7086 196.127 89.0498 195.757C87.3892 195.388 85.7413 194.984 84.1023 194.542C82.4652 194.102 80.839 193.624 79.2271 193.113C77.6153 192.599 76.018 192.052 74.435 191.471C72.8521 190.887 71.2873 190.272 69.7369 189.621C68.1883 188.969 66.6578 188.285 65.1454 187.568C63.633 186.85 62.1422 186.099 60.6713 185.316C59.1986 184.534 57.7494 183.718 56.3219 182.872C54.8944 182.026 53.4922 181.149 52.1117 180.241C50.733 179.333 49.3777 178.394 48.0496 177.428C46.7197 176.46 45.4187 175.464 44.1429 174.439C42.869 173.416 41.6222 172.363 40.4043 171.285C39.1864 170.206 37.9974 169.102 36.8392 167.971C35.6809 166.839 34.5551 165.684 33.4583 164.504C32.3633 163.324 31.3008 162.121 30.2708 160.895C29.239 159.667 28.2434 158.419 27.2803 157.149C26.3171 155.877 25.3902 154.588 24.4975 153.277C23.6049 151.966 22.7484 150.636 21.928 149.288C21.1058 147.94 20.3234 146.574 19.5753 145.19C18.8291 143.808 18.1207 142.409 17.4485 140.996C16.7781 139.582 16.1457 138.154 15.553 136.713C14.9585 135.273 14.4038 133.819 13.8888 132.352C13.3738 130.887 12.9004 129.411 12.4649 127.925C12.0294 126.438 11.6355 124.943 11.2813 123.439C10.9272 121.934 10.6146 120.424 10.3417 118.907C10.0707 117.39 9.83936 115.866 9.64963 114.34C9.45989 112.811 9.31172 111.281 9.20511 109.746C9.0985 108.213 9.03345 106.678 9.00996 105.14C8.98647 103.604 9.00454 102.067 9.06417 100.531C9.1256 98.9956 9.22679 97.4608 9.36955 95.9291C9.5123 94.3975 9.69661 92.8707 9.92248 91.3472C10.1484 89.8237 10.414 88.305 10.723 86.7929C11.0302 85.2807 11.3789 83.7767 11.7674 82.2808C12.1577 80.7833 12.5878 79.2971 13.0576 77.8191C13.5274 76.341 14.037 74.8744 14.5863 73.4191C15.1356 71.9638 15.7247 70.5198 16.3517 69.0905C16.9787 67.6612 17.6455 66.2465 18.3502 64.8448C19.0531 63.4447 19.7958 62.0593 20.5746 60.6917C21.3534 59.3241 22.1701 57.9728 23.023 56.6409C23.8741 55.309 24.7632 53.995 25.6865 52.7022C26.6099 51.4077 27.5676 50.1359 28.5614 48.8836C29.5534 47.633 30.5798 46.4034 31.6387 45.1967C32.6976 43.9899 33.789 42.8074 34.9111 41.6477C36.035 40.4897 37.1879 39.356 38.3733 38.2466C39.5586 37.1389 40.7711 36.0572 42.0143 35.0014C43.2575 33.9457 44.5296 32.9192 45.8288 31.9187C47.1281 30.9198 48.4526 29.9485 49.8042 29.0064C51.1558 28.066 52.5309 27.1532 53.9331 26.2729C55.3335 25.3909 56.7574 24.5398 58.2048 23.7212C59.6504 22.9026 61.1195 22.1149 62.6084 21.3612C64.0992 20.606 65.608 19.8848 67.1367 19.1945C68.6654 18.5059 70.2121 17.8513 71.7752 17.2309C73.34 16.6088 74.9193 16.0224 76.5167 15.4718C78.1122 14.9196 79.7222 14.4031 81.3467 13.9207C82.9694 13.4399 84.6065 12.9949 86.2544 12.584C87.9024 12.1747 89.5594 11.8011 91.229 11.4633C92.8969 11.127 94.5738 10.8266 96.2579 10.5618C97.942 10.2987 99.6333 10.0713 101.33 9.88127C103.027 9.69124 104.729 9.53856 106.433 9.42324C108.139 9.30792 109.846 9.22996 111.556 9.18935C113.265 9.14875 114.974 9.1455 116.684 9.17961C118.393 9.21534 120.101 9.28681 121.807 9.39563C123.512 9.50445 125.215 9.65063 126.911 9.83417C128.61 10.0177 130.301 10.237 131.987 10.4952C133.673 10.7519 135.35 11.0475 137.021 11.3772C138.691 11.7085 140.35 12.0756 142 12.48C143.651 12.8828 145.288 13.323 146.915 13.7973C148.541 14.2732 150.153 14.7832 151.752 15.3305C153.349 15.8763 154.932 16.4561 156.501 17.0717C158.067 17.6873 159.616 18.3353 161.148 19.0191C162.68 19.7013 164.193 20.4176 165.685 21.1663C167.178 21.9167 168.651 22.698 170.102 23.5117C171.553 24.3254 172.98 25.17 174.384 26.0455C175.79 26.9226 177.17 27.8289 178.526 28.7644C179.883 29.7016 181.213 30.668 182.516 31.662C183.818 32.6577 185.094 33.6793 186.343 34.7302C187.591 35.7811 188.809 36.8579 190 37.9624L111.465 107.346Z"/>
</mask>
<path d="M117.269 40.4361L116.871 35.9537L116.87 35.9538L117.269 40.4361ZM115.967 40.6099L116.75 45.0412L116.76 45.0394L116.769 45.0377L115.967 40.6099ZM114.687 40.8973L113.514 36.553L113.506 36.5551L113.498 36.5572L114.687 40.8973ZM113.446 41.2969L115.013 45.5152L115.013 45.5152L113.446 41.2969ZM112.253 41.8037L114.203 45.8593L114.203 45.8593L112.253 41.8037ZM111.122 42.4127L108.813 38.5502L108.805 38.5553L111.122 42.4127ZM110.063 43.1193L112.731 46.743L112.742 46.7347L110.063 43.1193ZM109.086 43.9151L106.087 40.5598L106.077 40.5684L109.086 43.9151ZM108.2 44.7938L104.876 41.7608L104.874 41.7628L108.2 44.7938ZM107.416 45.7456L111.018 48.4434L111.026 48.4328L111.033 48.4221L107.416 45.7456ZM106.738 46.7624L110.601 49.0715L110.607 49.0602L110.614 49.0488L106.738 46.7624ZM106.175 47.8328L110.255 49.7294L110.259 49.7211L110.263 49.7128L106.175 47.8328ZM105.73 48.9486L109.992 50.3934L109.995 50.3842L109.998 50.3751L105.73 48.9486ZM105.408 50.0986L101.017 49.1173L101.014 49.127L101.012 49.1368L105.408 50.0986ZM105.215 51.2712L100.742 50.7777L100.741 50.7879L100.74 50.7981L105.215 51.2712ZM105.215 53.6393L100.74 54.1106L100.741 54.1217L100.742 54.1328L105.215 53.6393ZM105.408 54.8104L101.012 55.7722L101.014 55.7819L101.017 55.7917L105.408 54.8104ZM105.73 55.9604L109.998 54.5339L109.995 54.5247L109.992 54.5156L105.73 55.9604ZM106.175 57.0762L110.263 55.1962L110.259 55.1878L110.255 55.1795L106.175 57.0762ZM106.738 58.1482L110.614 55.8618L110.61 55.8544L110.605 55.847L106.738 58.1482ZM107.416 59.1649L111.027 56.4799L111.024 56.4757L107.416 59.1649ZM108.2 60.1167L104.874 63.1478L104.879 63.1532L104.884 63.1585L108.2 60.1167ZM109.086 60.9954L106.068 64.3335L106.077 64.3422L106.087 64.3508L109.086 60.9954ZM110.063 61.7913L107.384 65.4067L107.395 65.415L110.063 61.7913ZM111.122 62.4962L113.443 58.6412L113.439 58.6387L111.122 62.4962ZM112.253 63.1053L114.203 59.0497L114.196 59.0464L114.189 59.0431L112.253 63.1053ZM113.446 63.612L115.028 59.3993L115.02 59.3965L115.013 59.3938L113.446 63.612ZM114.687 64.0116L113.498 68.3517L113.498 68.3517L114.687 64.0116ZM115.967 64.2991L116.769 59.8713L116.76 59.8695L116.75 59.8678L115.967 64.2991ZM117.269 64.4745L116.87 68.9567L116.879 68.9575L116.888 68.9583L117.269 64.4745ZM119.904 64.4745L120.287 68.9582L120.295 68.9575L120.303 68.9567L119.904 64.4745ZM121.209 64.2991L120.425 59.8678L120.417 59.8692L120.409 59.8707L121.209 64.2991ZM127.11 61.7913L129.778 65.415L129.78 65.4135L127.11 61.7913ZM128.088 60.9954L131.096 64.3422L131.106 64.3335L128.088 60.9954ZM128.973 60.1167L125.657 57.0749L125.652 57.0803L125.647 57.0856L128.973 60.1167ZM129.759 59.1649L133.361 61.8627L133.369 61.8521L133.377 61.8414L129.759 59.1649ZM130.437 58.1482L134.304 60.4494L134.304 60.4494L130.437 58.1482ZM131.001 57.0762L135.089 58.9562L135.089 58.9562L131.001 57.0762ZM131.445 55.9604L135.707 57.4051L135.71 57.396L135.713 57.3868L131.445 55.9604ZM131.765 54.8104L127.373 53.8291L127.371 53.8389L127.369 53.8486L131.765 54.8104ZM131.958 53.6393L136.431 54.1328L136.431 54.1308L131.958 53.6393ZM131.765 50.0986L127.369 51.0603L127.371 51.0701L127.373 51.0798L131.765 50.0986ZM131.445 48.9486L135.713 47.5221L135.71 47.513L135.707 47.5038L131.445 48.9486ZM131.001 47.8328L135.089 45.9527L135.089 45.9527L131.001 47.8328ZM130.437 46.7624L126.57 49.0636L126.574 49.0715L130.437 46.7624ZM129.759 45.7456L133.37 43.0607L133.367 43.0564L129.759 45.7456ZM128.973 44.7938L125.639 47.8161L125.648 47.8259L125.657 47.8356L128.973 44.7938ZM128.088 43.9151L125.079 47.2619L125.079 47.2619L128.088 43.9151ZM127.11 43.1193L124.431 46.7347L124.441 46.7422L124.451 46.7497L127.11 43.1193ZM126.051 42.4127L123.734 46.2702L123.742 46.2753L126.051 42.4127ZM124.92 41.8037L122.963 45.8557L122.97 45.8593L124.92 41.8037ZM123.729 41.2969L122.162 45.5152L122.162 45.5152L123.729 41.2969ZM122.488 40.8973L123.677 36.5572L123.669 36.5551L123.661 36.553L122.488 40.8973ZM121.209 40.6099L120.409 45.0383L120.417 45.0397L120.425 45.0412L121.209 40.6099ZM119.904 40.4361L119.504 44.9183L119.504 44.9183L119.904 40.4361ZM118.587 35.8776C118.014 35.8776 117.442 35.903 116.871 35.9537L117.667 44.9184C117.975 44.8912 118.281 44.8776 118.587 44.8776V35.8776ZM116.87 35.9538C116.311 36.0037 115.74 36.0776 115.164 36.182L116.769 45.0377C117.053 44.9862 117.353 44.9464 117.669 44.9183L116.87 35.9538ZM115.183 36.1786C114.605 36.2807 114.048 36.4087 113.514 36.553L115.86 45.2417C116.168 45.1586 116.464 45.0917 116.75 45.0412L115.183 36.1786ZM113.498 36.5572C112.95 36.7073 112.41 36.8811 111.879 37.0786L115.013 45.5152C115.294 45.4106 115.582 45.318 115.876 45.2375L113.498 36.5572ZM111.879 37.0786C111.343 37.2777 110.818 37.5008 110.303 37.7481L114.203 45.8593C114.466 45.733 114.736 45.6182 115.013 45.5152L111.879 37.0786ZM110.303 37.7481C109.788 37.9958 109.292 38.2637 108.813 38.5502L113.431 46.2753C113.685 46.1232 113.941 45.9851 114.203 45.8593L110.303 37.7481ZM108.805 38.5553C108.322 38.8451 107.847 39.1608 107.384 39.5039L112.742 46.7347C112.959 46.5742 113.192 46.4189 113.439 46.2702L108.805 38.5553ZM107.395 39.4956C106.931 39.837 106.496 40.1941 106.087 40.5598L112.084 47.2705C112.3 47.0774 112.516 46.9018 112.731 46.743L107.395 39.4956ZM106.077 40.5684C105.656 40.9468 105.256 41.3438 104.876 41.7608L111.524 47.8269C111.704 47.6299 111.893 47.4422 112.094 47.2619L106.077 40.5684ZM104.874 41.7628C104.5 42.1738 104.139 42.6085 103.798 43.0692L111.033 48.4221C111.18 48.2233 111.344 48.0246 111.526 47.8249L104.874 41.7628ZM103.814 43.0479C103.469 43.5092 103.151 43.9861 102.862 44.476L110.614 49.0488C110.737 48.8403 110.872 48.6383 111.018 48.4434L103.814 43.0479ZM102.876 44.4533C102.584 44.9412 102.321 45.4419 102.086 45.9527L110.263 49.7128C110.364 49.4928 110.477 49.2788 110.601 49.0715L102.876 44.4533ZM102.094 45.9361C101.853 46.4531 101.643 46.9819 101.462 47.5221L109.998 50.3751C110.07 50.1584 110.156 49.9433 110.255 49.7294L102.094 45.9361ZM101.468 47.5038C101.287 48.0398 101.137 48.5781 101.017 49.1173L109.8 51.0798C109.853 50.8426 109.917 50.6143 109.992 50.3934L101.468 47.5038ZM101.012 49.1368C100.895 49.6732 100.804 50.221 100.742 50.7777L109.688 51.7647C109.713 51.5354 109.752 51.3003 109.804 51.0603L101.012 49.1368ZM100.74 50.7981C100.682 51.3417 100.652 51.8945 100.652 52.4553H109.652C109.652 52.2235 109.664 51.9868 109.69 51.7444L100.74 50.7981ZM100.652 52.4553C100.652 53.0151 100.683 53.5672 100.74 54.1106L109.69 53.1681C109.664 52.9221 109.652 52.6848 109.652 52.4553H100.652ZM100.742 54.1328C100.804 54.6915 100.895 55.2377 101.012 55.7722L109.804 53.8486C109.751 53.6067 109.713 53.3733 109.688 53.1458L100.742 54.1328ZM101.017 55.7917C101.137 56.3309 101.287 56.8692 101.468 57.4051L109.992 54.5156C109.917 54.2946 109.853 54.0663 109.8 53.8291L101.017 55.7917ZM101.462 57.3868C101.643 57.927 101.853 58.4559 102.094 58.9729L110.255 55.1795C110.156 54.9656 110.07 54.7506 109.998 54.5339L101.462 57.3868ZM102.086 58.9562C102.321 59.4673 102.583 59.9652 102.871 60.4494L110.605 55.847C110.478 55.6328 110.364 55.4159 110.263 55.1962L102.086 58.9562ZM102.862 60.4345C103.155 60.9303 103.471 61.4023 103.808 61.8541L111.024 56.4757C110.869 56.2681 110.734 56.0644 110.614 55.8618L102.862 60.4345ZM103.805 61.8499C104.137 62.2973 104.494 62.7312 104.874 63.1478L111.526 57.0856C111.349 56.8915 111.182 56.6887 111.027 56.4799L103.805 61.8499ZM104.884 63.1585C105.26 63.5681 105.654 63.9592 106.068 64.3335L112.103 57.6574C111.896 57.4697 111.701 57.2761 111.516 57.0749L104.884 63.1585ZM106.087 64.3508C106.503 64.7227 106.935 65.0741 107.384 65.4067L112.742 58.1759C112.512 58.005 112.293 57.8269 112.084 57.6401L106.087 64.3508ZM107.395 65.415C107.851 65.7506 108.322 66.0639 108.805 66.3537L113.439 58.6387C113.192 58.49 112.955 58.3322 112.731 58.1676L107.395 65.415ZM108.801 66.3512C109.288 66.6446 109.792 66.9173 110.317 67.1675L114.189 59.0431C113.937 58.923 113.69 58.7896 113.443 58.6412L108.801 66.3512ZM110.303 67.1609C110.818 67.4082 111.343 67.6313 111.879 67.8303L115.013 59.3938C114.736 59.2907 114.466 59.176 114.203 59.0497L110.303 67.1609ZM111.864 67.8248C112.415 68.0316 112.961 68.2046 113.498 68.3517L115.876 59.6715C115.571 59.588 115.29 59.4978 115.028 59.3993L111.864 67.8248ZM113.498 68.3517C114.054 68.5038 114.615 68.63 115.183 68.7304L116.75 59.8678C116.454 59.8155 116.163 59.75 115.876 59.6715L113.498 68.3517ZM115.164 68.7269C115.73 68.8295 116.3 68.9059 116.87 68.9567L117.669 59.9923C117.364 59.9651 117.064 59.9246 116.769 59.8713L115.164 68.7269ZM116.888 68.9583C117.448 69.0059 118.014 69.0313 118.587 69.0313V60.0313C118.281 60.0313 117.969 60.0178 117.651 59.9907L116.888 68.9583ZM118.587 69.0313C119.16 69.0313 119.727 69.006 120.287 68.9582L119.521 59.9908C119.206 60.0177 118.895 60.0313 118.587 60.0313V69.0313ZM120.303 68.9567C120.874 68.9059 121.443 68.8295 122.008 68.7275L120.409 59.8707C120.111 59.9246 119.808 59.9652 119.504 59.9923L120.303 68.9567ZM121.992 68.7304C122.56 68.63 123.121 68.5038 123.677 68.3517L121.299 59.6715C121.012 59.75 120.721 59.8155 120.425 59.8678L121.992 68.7304ZM123.677 68.3517C124.214 68.2046 124.76 68.0316 125.311 67.8248L122.147 59.3993C121.885 59.4978 121.604 59.588 121.299 59.6715L123.677 68.3517ZM128.36 66.3587C128.856 66.0624 129.328 65.7466 129.778 65.415L124.442 58.1676C124.213 58.3363 123.98 58.4915 123.742 58.6337L128.36 66.3587ZM129.78 65.4135C130.237 65.077 130.675 64.7205 131.096 64.3421L125.079 57.6487C124.879 57.8291 124.667 58.0021 124.44 58.1691L129.78 65.4135ZM131.106 64.3335C131.512 63.9658 131.913 63.5715 132.299 63.1478L125.647 57.0856C125.477 57.2727 125.285 57.4631 125.07 57.6574L131.106 64.3335ZM132.289 63.1585C132.684 62.7282 133.039 62.2925 133.361 61.8627L126.157 56.4672C125.988 56.6935 125.822 56.8946 125.657 57.0749L132.289 63.1585ZM133.377 61.8414C133.705 61.3974 134.015 60.9346 134.304 60.4494L126.57 55.847C126.443 56.0602 126.301 56.273 126.142 56.4885L133.377 61.8414ZM134.304 60.4494C134.592 59.9652 134.854 59.4673 135.089 58.9562L126.912 55.1962C126.811 55.4159 126.697 55.6328 126.57 55.847L134.304 60.4494ZM135.089 58.9562C135.322 58.4497 135.528 57.9325 135.707 57.4051L127.183 54.5156C127.105 54.7451 127.015 54.9718 126.912 55.1962L135.089 58.9562ZM135.713 57.3868C135.884 56.8759 136.037 56.3368 136.161 55.7722L127.369 53.8486C127.323 54.0604 127.259 54.2879 127.177 54.5339L135.713 57.3868ZM136.157 55.7917C136.282 55.2313 136.371 54.6781 136.431 54.1328L127.485 53.1458C127.459 53.3867 127.421 53.6131 127.373 53.8291L136.157 55.7917ZM136.431 54.1308C136.492 53.574 136.523 53.0152 136.523 52.4553H127.523C127.523 52.6847 127.511 52.9154 127.485 53.1478L136.431 54.1308ZM136.523 52.4553C136.523 51.8944 136.493 51.335 136.431 50.7777L127.485 51.7647C127.511 51.9936 127.523 52.2235 127.523 52.4553H136.523ZM136.431 50.7777C136.371 50.2345 136.282 49.6795 136.157 49.1173L127.373 51.0798C127.421 51.294 127.459 51.5218 127.485 51.7647L136.431 50.7777ZM136.161 49.1368C136.037 48.5722 135.884 48.0331 135.713 47.5221L127.177 50.3751C127.259 50.621 127.323 50.8485 127.369 51.0603L136.161 49.1368ZM135.707 47.5038C135.528 46.9764 135.322 46.4592 135.089 45.9527L126.912 49.7128C127.015 49.9372 127.105 50.1639 127.183 50.3934L135.707 47.5038ZM135.089 45.9527C134.854 45.4419 134.591 44.9412 134.299 44.4533L126.574 49.0715C126.698 49.2788 126.811 49.4928 126.912 49.7128L135.089 45.9527ZM134.304 44.4612C134.019 43.9818 133.707 43.5141 133.37 43.0607L126.148 48.4306C126.299 48.6334 126.439 48.8446 126.57 49.0636L134.304 44.4612ZM133.367 43.0564C133.036 42.6127 132.679 42.1774 132.289 41.7521L125.657 47.8356C125.827 48.021 125.99 48.2191 126.151 48.4349L133.367 43.0564ZM132.307 41.7716C131.916 41.3403 131.51 40.9403 131.096 40.5684L125.079 47.2619C125.287 47.4488 125.473 47.6334 125.639 47.8161L132.307 41.7716ZM131.096 40.5684C130.682 40.1963 130.241 39.8341 129.769 39.4889L124.451 46.7497C124.663 46.9047 124.872 47.0752 125.079 47.2619L131.096 40.5684ZM129.789 39.5039C129.332 39.1648 128.856 38.8467 128.36 38.5502L123.742 46.2753C123.98 46.4173 124.209 46.5702 124.431 46.7347L129.789 39.5039ZM128.369 38.5553C127.88 38.2619 127.38 37.9931 126.87 37.7481L122.97 45.8593C123.237 45.9878 123.492 46.125 123.734 46.2702L128.369 38.5553ZM126.877 37.7516C126.36 37.5017 125.832 37.2776 125.296 37.0786L122.162 45.5152C122.44 45.6183 122.707 45.7321 122.963 45.8557L126.877 37.7516ZM125.296 37.0786C124.765 36.8811 124.225 36.7073 123.677 36.5572L121.299 45.2375C121.593 45.318 121.881 45.4106 122.162 45.5152L125.296 37.0786ZM123.661 36.553C123.127 36.4087 122.57 36.2807 121.992 36.1786L120.425 45.0412C120.711 45.0917 121.007 45.1586 121.315 45.2417L123.661 36.553ZM122.008 36.1814C121.432 36.0775 120.863 36.0037 120.303 35.9538L119.504 44.9183C119.82 44.9464 120.121 44.9863 120.409 45.0383L122.008 36.1814ZM120.303 35.9538C119.733 35.903 119.16 35.8776 118.587 35.8776V44.8776C118.895 44.8776 119.2 44.8912 119.504 44.9183L120.303 35.9538ZM111.465 107.346L105.507 100.601L98.0029 107.23L105.392 113.987L111.465 107.346ZM184.693 174.314L190.34 181.322L198.501 174.746L190.767 167.672L184.693 174.314ZM180.793 177.307L175.482 170.042L175.482 170.042L180.793 177.307ZM176.737 180.129L181.693 187.641L181.704 187.634L176.737 180.129ZM172.532 182.768L177.132 190.504L177.139 190.5L172.532 182.768ZM168.19 185.219L163.95 177.28L163.948 177.281L168.19 185.219ZM163.719 187.478L159.849 179.353L159.842 179.356L163.719 187.478ZM159.131 189.539L155.635 181.246L155.624 181.251L159.131 189.539ZM154.439 191.397L151.317 182.956L151.309 182.959L154.439 191.397ZM149.65 193.049L152.389 201.623L152.397 201.62L149.65 193.049ZM144.779 194.488L147.132 203.175L147.14 203.173L144.779 194.488ZM139.833 195.711L137.866 186.929L137.864 186.929L139.833 195.711ZM124.685 198.07L123.89 189.105L123.889 189.105L124.685 198.07ZM119.571 198.409L119.169 189.418L119.169 189.418L119.571 198.409ZM114.445 198.526L114.436 189.526L114.436 189.526L114.445 198.526ZM109.317 198.419L108.932 207.411L108.932 207.411L109.317 198.419ZM99.1111 197.532L97.9371 206.455L97.9383 206.455L99.1111 197.532ZM94.057 196.756L92.4878 205.618L92.4945 205.619L94.057 196.756ZM89.0498 195.757L91.0108 186.973L91.0006 186.971L89.0498 195.757ZM84.1023 194.542L86.4448 185.852L86.4391 185.851L84.1023 194.542ZM79.2271 193.113L76.4964 201.688L76.5042 201.691L79.2271 193.113ZM74.435 191.471L71.3241 199.916L71.3317 199.919L74.435 191.471ZM69.7369 189.621L66.2477 197.917L66.2511 197.918L69.7369 189.621ZM65.1454 187.568L61.2861 195.698L61.2861 195.698L65.1454 187.568ZM60.6713 185.316L64.8999 177.372L64.8959 177.369L60.6713 185.316ZM56.3219 182.872L60.9113 175.13L60.9113 175.13L56.3219 182.872ZM52.1117 180.241L47.1618 187.757L47.1663 187.76L52.1117 180.241ZM48.0496 177.428L42.7532 184.704L42.7543 184.705L48.0496 177.428ZM44.1429 174.439L49.7796 167.423L49.779 167.422L44.1429 174.439ZM40.4043 171.285L34.4377 178.023L34.4377 178.023L40.4043 171.285ZM36.8392 167.971L30.5484 174.408L30.553 174.412L36.8392 167.971ZM33.4583 164.504L26.8634 170.628L26.8642 170.629L33.4583 164.504ZM30.2708 160.895L37.1624 155.106L37.1612 155.105L30.2708 160.895ZM27.2803 157.149L20.1055 162.583L20.1089 162.587L27.2803 157.149ZM24.4975 153.277L17.0587 158.343L17.0587 158.343L24.4975 153.277ZM21.928 149.288L29.6164 144.609L29.6118 144.602L21.928 149.288ZM19.5753 145.19L11.6559 149.466L11.6581 149.47L19.5753 145.19ZM17.4485 140.996L9.31547 144.85L9.32122 144.862L17.4485 140.996ZM15.553 136.713L23.8762 133.289L23.8725 133.28L15.553 136.713ZM13.8888 132.352L22.3805 129.371L22.3795 129.368L13.8888 132.352ZM12.4649 127.925L3.82805 130.455L3.82805 130.455L12.4649 127.925ZM10.3417 118.907L1.48199 120.49L1.48383 120.5L10.3417 118.907ZM9.64963 114.34L0.718182 115.448L0.718326 115.45L9.64963 114.34ZM9.20511 109.746L18.1835 109.123L18.1834 109.122L9.20511 109.746ZM9.00996 105.14L18.0089 105.003L18.0089 105.002L9.00996 105.14ZM9.06417 100.531L0.0713618 100.171L0.0709372 100.182L9.06417 100.531ZM9.36955 95.9291L18.3307 96.7643L18.3307 96.7643L9.36955 95.9291ZM9.92248 91.3472L18.8252 92.6671L18.8252 92.6671L9.92248 91.3472ZM10.723 86.7929L19.5408 88.5947L19.5428 88.5846L10.723 86.7929ZM11.7674 82.2808L3.05834 80.0109L3.05638 80.0185L11.7674 82.2808ZM13.0576 77.8191L4.48045 75.0927L4.48045 75.0927L13.0576 77.8191ZM14.5863 73.4191L6.16615 70.2408L14.5863 73.4191ZM16.3517 69.0905L24.5935 72.7061L24.5935 72.7061L16.3517 69.0905ZM18.3502 64.8448L26.3912 68.8875L26.3934 68.8829L18.3502 64.8448ZM23.023 56.6409L30.6022 61.4944L30.6069 61.4871L23.023 56.6409ZM25.6865 52.7022L33.0104 57.9329L33.0135 57.9285L25.6865 52.7022ZM28.5614 48.8836L35.6111 54.4784L35.6125 54.4766L28.5614 48.8836ZM31.6387 45.1967L24.8737 39.2608L24.8737 39.2608L31.6387 45.1967ZM34.9111 41.6477L28.4527 35.3797L28.4433 35.3894L34.9111 41.6477ZM38.3733 38.2466L32.2284 31.6709L32.2236 31.6754L38.3733 38.2466ZM42.0143 35.0014L47.84 41.8615L47.84 41.8615L42.0143 35.0014ZM45.8288 31.9187L40.3432 24.7837L40.3376 24.788L45.8288 31.9187ZM49.8042 29.0064L44.664 21.6187L44.658 21.6229L49.8042 29.0064ZM53.9331 26.2729L58.7185 33.8952L58.7293 33.8885L53.9331 26.2729ZM58.2048 23.7212L62.6354 31.5551L62.6396 31.5527L58.2048 23.7212ZM62.6084 21.3612L66.6728 29.3912L66.6759 29.3897L62.6084 21.3612ZM67.1367 19.1945L63.44 10.9888L63.4328 10.992L67.1367 19.1945ZM71.7752 17.2309L75.0957 25.5959L75.0999 25.5942L71.7752 17.2309ZM76.5167 15.4718L79.4496 23.9805L79.4603 23.9768L76.5167 15.4718ZM81.3467 13.9207L78.79 5.29149L78.7847 5.29307L81.3467 13.9207ZM86.2544 12.584L84.085 3.84934L84.0769 3.85136L86.2544 12.584ZM91.229 11.4633L89.4505 2.64073L89.4442 2.64203L91.229 11.4633ZM96.2579 10.5618L94.8686 1.66969L94.8602 1.67101L96.2579 10.5618ZM101.33 9.88127L100.328 0.93719L100.328 0.937191L101.33 9.88127ZM106.433 9.42324L105.826 0.443736L105.825 0.44378L106.433 9.42324ZM111.556 9.18935L111.342 0.19189L111.556 9.18935ZM116.684 9.17961L116.872 0.181569L116.863 0.181398L116.684 9.17961ZM121.807 9.39563L121.234 18.3774L121.234 18.3774L121.807 9.39563ZM126.911 9.83417L125.943 18.782L125.944 18.7821L126.911 9.83417ZM131.987 10.4952L130.624 19.3915L130.633 19.3927L131.987 10.4952ZM137.021 11.3772L138.773 2.54932L138.763 2.54733L137.021 11.3772ZM142 12.48L139.857 21.2212L139.867 21.2237L142 12.48ZM146.915 13.7973L149.442 5.1595L149.434 5.15718L146.915 13.7973ZM151.752 15.3305L148.837 23.8455L148.842 23.8472L151.752 15.3305ZM156.501 17.0717L159.792 8.69512L159.789 8.69383L156.501 17.0717ZM161.148 19.0191L157.48 27.2379L157.488 27.2411L161.148 19.0191ZM165.685 21.1663L169.728 13.1254L169.721 13.1219L165.685 21.1663ZM170.102 23.5117L174.504 15.6619L174.504 15.6619L170.102 23.5117ZM174.384 26.0455L179.148 18.4097L179.146 18.4085L174.384 26.0455ZM178.526 28.7644L183.64 21.3588L183.639 21.3578L178.526 28.7644ZM182.516 31.662L187.98 24.5111L187.975 24.5068L182.516 31.662ZM186.343 34.7302L180.547 41.616L180.547 41.616L186.343 34.7302ZM190 37.9624L195.959 44.7072L203.41 38.1246L196.12 31.3637L190 37.9624ZM105.392 113.987L178.619 180.955L190.767 167.672L117.539 100.704L105.392 113.987ZM179.046 167.306C177.883 168.243 176.695 169.155 175.482 170.042L186.105 184.573C187.544 183.521 188.955 182.437 190.34 181.322L179.046 167.306ZM175.482 170.042C174.272 170.926 173.034 171.787 171.77 172.623L181.704 187.634C183.194 186.648 184.662 185.628 186.105 184.573L175.482 170.042ZM171.781 172.616C170.512 173.453 169.228 174.26 167.925 175.036L177.139 190.5C178.687 189.577 180.204 188.623 181.693 187.641L171.781 172.616ZM167.932 175.032C166.619 175.813 165.291 176.564 163.95 177.28L172.429 193.158C174.026 192.305 175.594 191.418 177.132 190.503L167.932 175.032ZM163.948 177.281C162.595 178.004 161.23 178.695 159.849 179.353L167.59 195.604C169.23 194.822 170.843 194.006 172.432 193.156L163.948 177.281ZM159.842 179.356C158.456 180.018 157.054 180.648 155.635 181.246L162.628 197.832C164.306 197.125 165.961 196.381 167.597 195.6L159.842 179.356ZM155.624 181.251C154.209 181.85 152.773 182.418 151.317 182.956L157.56 199.839C159.267 199.208 160.961 198.538 162.639 197.828L155.624 181.251ZM151.309 182.959C149.862 183.496 148.394 184.001 146.904 184.479L152.397 201.62C154.13 201.065 155.853 200.472 157.568 199.836L151.309 182.959ZM146.912 184.476C145.426 184.951 143.93 185.393 142.418 185.804L147.14 203.173C148.902 202.694 150.651 202.178 152.389 201.623L146.912 184.476ZM142.426 185.801C140.916 186.21 139.397 186.586 137.866 186.929L141.8 204.494C143.59 204.093 145.367 203.653 147.132 203.175L142.426 185.801ZM137.864 186.929C136.332 187.273 134.794 187.583 133.25 187.858L136.409 205.579C138.219 205.256 140.016 204.894 141.802 204.493L137.864 186.929ZM133.25 187.858C131.706 188.133 130.15 188.375 128.585 188.584L130.966 206.425C132.783 206.183 134.599 205.901 136.409 205.579L133.25 187.858ZM128.585 188.584C127.025 188.792 125.46 188.966 123.89 189.105L125.481 207.035C127.315 206.872 129.143 206.669 130.966 206.425L128.585 188.584ZM123.889 189.105C122.326 189.244 120.752 189.347 119.169 189.418L119.973 207.4C121.806 207.318 123.644 207.198 125.482 207.034L123.889 189.105ZM119.169 189.418C117.593 189.489 116.015 189.525 114.436 189.526L114.454 207.526C116.294 207.524 118.135 207.482 119.973 207.4L119.169 189.418ZM114.436 189.526C112.858 189.528 111.28 189.495 109.701 189.427L108.932 207.411C110.773 207.489 112.613 207.528 114.454 207.526L114.436 189.526ZM109.702 189.427C108.126 189.36 106.553 189.258 104.982 189.121L103.425 207.054C105.258 207.213 107.093 207.332 108.932 207.411L109.702 189.427ZM104.982 189.121C103.411 188.985 101.846 188.814 100.284 188.609L97.9383 206.455C99.7623 206.695 101.59 206.895 103.425 207.054L104.982 189.121ZM100.285 188.609C98.7196 188.403 97.1633 188.165 95.6194 187.892L92.4945 205.619C94.3043 205.938 96.1199 206.216 97.9371 206.455L100.285 188.609ZM95.6261 187.894C94.0692 187.618 92.5305 187.312 91.0108 186.973L87.0889 204.541C88.8867 204.942 90.6874 205.299 92.4878 205.618L95.6261 187.894ZM91.0006 186.971C89.4697 186.631 87.9523 186.258 86.4448 185.852L81.7599 203.232C83.5302 203.709 85.3088 204.145 87.0991 204.543L91.0006 186.971ZM86.4391 185.851C84.9348 185.446 83.4373 185.006 81.9501 184.534L76.5042 201.691C78.2406 202.242 79.9957 202.757 81.7655 203.233L86.4391 185.851ZM81.9579 184.537C80.4708 184.063 78.9977 183.559 77.5384 183.023L71.3317 199.919C73.0382 200.545 74.7598 201.135 76.4964 201.688L81.9579 184.537ZM77.546 183.025C76.0859 182.487 74.6461 181.921 73.2227 181.323L66.2511 197.918C67.9285 198.623 69.6184 199.287 71.3241 199.916L77.546 183.025ZM73.2261 181.324C71.7992 180.724 70.3922 180.096 69.0047 179.437L61.2861 195.698C62.9234 196.475 64.5774 197.214 66.2477 197.917L73.2261 181.324ZM69.0047 179.437C67.6175 178.779 66.2498 178.09 64.8999 177.372L56.4427 193.261C58.0346 194.108 59.6484 194.921 61.2861 195.698L69.0047 179.437ZM64.8959 177.369C63.5494 176.654 62.2218 175.907 60.9113 175.13L51.7326 190.614C53.2771 191.529 54.8479 192.413 56.4468 193.263L64.8959 177.369ZM60.9113 175.13C59.6066 174.357 58.3231 173.554 57.0571 172.721L47.1663 187.76C48.6614 188.743 50.1822 189.695 51.7326 190.614L60.9113 175.13ZM57.0616 172.724C55.8002 171.893 54.5601 171.034 53.345 170.15L42.7543 184.705C44.1954 185.753 45.6657 186.772 47.1618 187.757L57.0616 172.724ZM53.3461 170.151C52.1324 169.268 50.9448 168.359 49.7796 167.423L38.5063 181.455C39.8925 182.569 41.307 183.651 42.7532 184.704L53.3461 170.151ZM49.779 167.422C48.6189 166.49 47.4822 165.531 46.3709 164.547L34.4377 178.023C35.7622 179.196 37.1192 180.341 38.5068 181.456L49.779 167.422ZM46.3709 164.547C45.2596 163.563 44.1773 162.557 43.1253 161.531L30.553 174.412C31.8175 175.646 33.1132 176.85 34.4377 178.023L46.3709 164.547ZM43.1299 161.535C42.0752 160.504 41.0506 159.453 40.0524 158.378L26.8642 170.629C28.0597 171.916 29.2866 173.174 30.5484 174.408L43.1299 161.535ZM40.0533 158.379C39.0608 157.311 38.0972 156.219 37.1624 155.106L23.3792 166.683C24.5044 168.023 25.6658 169.338 26.8634 170.628L40.0533 158.379ZM37.1612 155.105C36.2264 153.992 35.3244 152.862 34.4517 151.711L20.1089 162.587C21.1624 163.976 22.2517 165.341 23.3804 166.684L37.1612 155.105ZM34.455 151.716C33.582 150.563 32.7431 149.396 31.9363 148.211L17.0587 158.343C18.0372 159.78 19.0523 161.192 20.1055 162.583L34.455 151.716ZM31.9363 148.211C31.1307 147.028 30.3573 145.827 29.6163 144.609L14.2397 153.967C15.1394 155.445 16.0791 156.905 17.0587 158.343L31.9363 148.211ZM29.6118 144.602C28.8752 143.394 28.1704 142.164 27.4925 140.91L11.6581 149.47C12.4765 150.984 13.3365 152.486 14.2442 153.974L29.6118 144.602ZM27.4948 140.914C26.8231 139.67 26.1839 138.408 25.5758 137.13L9.32122 144.862C10.0575 146.41 10.835 147.946 11.6559 149.466L27.4948 140.914ZM25.5816 137.142C24.9766 135.866 24.4078 134.581 23.8762 133.289L7.22982 140.137C7.88362 141.727 8.57967 143.298 9.31548 144.85L25.5816 137.142ZM23.8725 133.28C23.3393 131.988 22.842 130.685 22.3805 129.371L5.39705 135.334C5.96554 136.953 6.57773 138.557 7.23349 140.146L23.8725 133.28ZM22.3795 129.368C21.9196 128.059 21.4946 126.734 21.1017 125.394L3.82805 130.455C4.30618 132.087 4.82803 133.715 5.39808 135.337L22.3795 129.368ZM21.1017 125.394C20.7127 124.066 20.3598 122.726 20.0417 121.376L2.52093 125.501C2.9112 127.159 3.34613 128.811 3.82805 130.455L21.1017 125.394ZM20.0417 121.376C19.7249 120.03 19.4446 118.676 19.1996 117.314L1.48383 120.5C1.78446 122.172 2.12941 123.839 2.52093 125.501L20.0417 121.376ZM19.2014 117.324C18.9579 115.961 18.7506 114.595 18.5809 113.23L0.718326 115.45C0.928073 117.137 1.18339 118.819 1.482 120.49L19.2014 117.324ZM18.5811 113.231C18.4113 111.863 18.2788 110.495 18.1835 109.123L0.226743 110.37C0.344667 112.068 0.508528 113.76 0.718182 115.448L18.5811 113.231ZM18.1834 109.122C18.0881 107.751 18.0299 106.378 18.0089 105.003L0.0110075 105.278C0.0369787 106.978 0.108908 108.675 0.226789 110.371L18.1834 109.122ZM18.0089 105.002C17.9879 103.628 18.0041 102.254 18.0574 100.88L0.0709372 100.182C0.00501973 101.88 -0.014963 103.579 0.0110098 105.278L18.0089 105.002ZM18.057 100.89C18.1122 99.5105 18.203 98.1342 18.3307 96.7643L0.408382 95.0939C0.250552 96.7874 0.139007 98.4808 0.0713685 100.171L18.057 100.89ZM18.3307 96.7643C18.4583 95.3953 18.6231 94.0302 18.8252 92.6671L1.01979 90.0273C0.770132 91.7113 0.566291 93.3996 0.408382 95.0939L18.3307 96.7643ZM18.8252 92.6671C19.0282 91.2978 19.2658 89.9401 19.5408 88.5947L1.90518 84.9911C1.56211 86.67 1.26853 88.3495 1.01979 90.0273L18.8252 92.6671ZM19.5428 88.5846C19.8172 87.2339 20.1295 85.8868 20.4784 84.5431L3.05638 80.0185C2.62833 81.6667 2.24309 83.3276 1.90312 85.0012L19.5428 88.5846ZM20.4765 84.5507C20.8263 83.2085 21.2122 81.8745 21.6347 80.5454L4.48045 75.0927C3.96329 76.7197 3.48913 78.3581 3.05834 80.0109L20.4765 84.5507ZM21.6347 80.5454C22.0561 79.2198 22.5132 77.9039 23.0064 76.5973L6.16615 70.2408C5.56067 71.8449 4.99873 73.4622 4.48045 75.0927L21.6347 80.5454ZM23.0064 76.5973C23.4996 75.2907 24.0292 73.9925 24.5935 72.7061L8.10987 65.475C7.42016 67.0472 6.77156 68.6369 6.16615 70.2408L23.0064 76.5973ZM24.5935 72.7061C25.1552 71.4257 25.7547 70.1534 26.3911 68.8875L10.3093 60.8022C9.53624 62.3397 8.8022 63.8968 8.10987 65.475L24.5935 72.7061ZM26.3934 68.8829C27.0241 67.6268 27.6924 66.3798 28.3954 65.1454L12.7538 56.238C11.8992 57.7387 11.0821 59.2627 10.307 60.8067L26.3934 68.8829ZM28.3954 65.1454C29.0968 63.9136 29.833 62.6955 30.6022 61.4944L15.4439 51.7874C14.5073 53.25 13.6099 54.7346 12.7538 56.238L28.3954 65.1454ZM30.6069 61.4871C31.373 60.2882 32.1752 59.1023 33.0104 57.9329L18.3626 47.4715C17.3511 48.8878 16.3752 50.3299 15.4392 51.7947L30.6069 61.4871ZM33.0135 57.9285C33.8466 56.7606 34.7117 55.6117 35.6111 54.4784L21.5117 43.2888C20.4234 44.6601 19.3732 46.0547 18.3595 47.4758L33.0135 57.9285ZM35.6125 54.4766C36.5111 53.3438 37.442 52.2286 38.4037 51.1325L24.8737 39.2608C23.7176 40.5783 22.5958 41.9221 21.5103 43.2906L35.6125 54.4766ZM38.4037 51.1325C39.3627 50.0396 40.3548 48.9645 41.379 47.9061L28.4433 35.3894C27.2232 36.6503 26.0324 37.9402 24.8737 39.2608L38.4037 51.1325ZM41.3695 47.9158C42.3957 46.8585 43.4457 45.826 44.523 44.8178L32.2236 31.6754C30.9301 32.8859 29.6744 34.1209 28.4527 35.3797L41.3695 47.9158ZM44.5182 44.8223C45.6021 43.8094 46.7083 42.8227 47.84 41.8615L36.1886 28.1413C34.834 29.2917 33.5152 30.4684 32.2284 31.6709L44.5182 44.8223ZM47.84 41.8615C48.9683 40.9034 50.1285 39.967 51.3201 39.0493L40.3376 24.788C38.9308 25.8714 37.5468 26.988 36.1886 28.1413L47.84 41.8615ZM51.3145 39.0536C52.5054 38.138 53.7168 37.2498 54.9504 36.39L44.658 21.6229C43.1884 22.6472 41.7507 23.7015 40.3432 24.7837L51.3145 39.0536ZM54.9444 36.3942C56.1882 35.5288 57.4449 34.6948 58.7185 33.8952L49.1477 18.6506C47.6169 19.6116 46.1235 20.6033 44.664 21.6187L54.9444 36.3942ZM58.7293 33.8885C60.0112 33.0811 61.3132 32.3029 62.6354 31.5551L53.7742 15.8874C52.2016 16.7768 50.6559 17.7007 49.137 18.6573L58.7293 33.8885ZM62.6396 31.5527C63.9646 30.8024 65.3102 30.0809 66.6728 29.3912L58.544 13.3313C56.9287 14.1488 55.3362 15.0028 53.77 15.8897L62.6396 31.5527ZM66.6759 29.3897C68.0429 28.6971 69.4303 28.0338 70.8406 27.3971L63.4328 10.992C61.7856 11.7358 60.1554 12.5149 58.5409 13.3328L66.6759 29.3897ZM70.8333 27.4003C72.2364 26.7683 73.6577 26.1667 75.0957 25.5959L68.4546 8.86581C66.7666 9.53588 65.0944 10.2435 63.44 10.9888L70.8333 27.4003ZM75.0999 25.5942C76.5369 25.023 77.9856 24.4852 79.4496 23.9805L73.5837 6.96314C71.853 7.55972 70.1431 8.19459 68.4504 8.86747L75.0999 25.5942ZM79.4603 23.9768C80.9266 23.4693 82.4092 22.9936 83.9087 22.5483L78.7847 5.29307C77.0352 5.81257 75.2979 6.36984 73.573 6.96683L79.4603 23.9768ZM83.9034 22.5499C85.3958 22.1077 86.9063 21.697 88.432 21.3166L84.0769 3.85136C82.3067 4.29279 80.543 4.77211 78.79 5.29149L83.9034 22.5499ZM88.4239 21.3186C89.9452 20.9407 91.474 20.5961 93.0139 20.2845L89.4442 2.64203C87.6448 3.00612 85.8596 3.40861 84.085 3.84935L88.4239 21.3186ZM93.0076 20.2858C94.5481 19.9752 96.098 19.6975 97.6555 19.4526L94.8602 1.67101C93.0495 1.95566 91.2456 2.27887 89.4505 2.64073L93.0076 20.2858ZM97.6472 19.4539C99.2046 19.2106 100.767 19.0006 102.332 18.8253L100.328 0.937191C98.4998 1.14198 96.6793 1.38679 94.8686 1.6697L97.6472 19.4539ZM102.332 18.8253C103.897 18.6501 105.468 18.5092 107.041 18.4027L105.825 0.44378C103.99 0.567963 102.157 0.73241 100.328 0.93719L102.332 18.8253ZM107.04 18.4027C108.615 18.2963 110.191 18.2243 111.769 18.1868L111.342 0.19189C109.501 0.235612 107.663 0.319562 105.826 0.443736L107.04 18.4027ZM111.769 18.1868C113.348 18.1493 114.926 18.1463 116.504 18.1778L116.863 0.181398C115.023 0.144674 113.182 0.148172 111.342 0.19189L111.769 18.1868ZM116.496 18.1776C118.08 18.2108 119.659 18.2769 121.234 18.3774L122.38 0.413887C120.543 0.296705 118.707 0.219929 116.872 0.181573L116.496 18.1776ZM121.234 18.3774C122.808 18.4778 124.379 18.6127 125.943 18.782L127.879 0.886362C126.051 0.688566 124.217 0.531091 122.38 0.413887L121.234 18.3774ZM125.944 18.7821C127.516 18.9519 129.075 19.1542 130.624 19.3915L133.35 1.59899C131.527 1.31977 129.704 1.08349 127.878 0.886252L125.944 18.7821ZM130.633 19.3927C132.18 19.6282 133.727 19.9008 135.28 20.207L138.763 2.54733C136.972 2.1941 135.166 1.87546 133.341 1.59771L130.633 19.3927ZM135.269 20.205C136.811 20.5108 138.339 20.8491 139.857 21.2212L144.142 3.73884C142.361 3.30206 140.571 2.90619 138.773 2.54933L135.269 20.205ZM139.867 21.2237C141.382 21.5933 142.89 21.9986 144.395 22.4373L149.434 5.15718C147.686 4.64741 145.92 4.17236 144.132 3.73632L139.867 21.2237ZM144.387 22.435C145.888 22.8743 147.371 23.3436 148.837 23.8455L154.666 6.8155C152.935 6.22276 151.194 5.67202 149.442 5.1595L144.387 22.435ZM148.842 23.8472C150.315 24.3505 151.772 24.8841 153.212 25.4495L159.789 8.69383C158.092 8.02809 156.383 7.40207 154.662 6.81386L148.842 23.8472ZM153.209 25.4482C154.653 26.0158 156.076 26.6114 157.48 27.2379L164.816 10.8003C163.155 10.0593 161.481 9.35877 159.792 8.69512L153.209 25.4482ZM157.488 27.2411C158.892 27.8662 160.279 28.5232 161.65 29.2108L169.721 13.1219C168.107 12.3119 166.469 11.5364 164.808 10.7971L157.488 27.2411ZM161.643 29.2073C163.018 29.8988 164.371 30.6165 165.699 31.3616L174.504 15.6619C172.93 14.7795 171.338 13.9346 169.728 13.1254L161.643 29.2073ZM165.699 31.3616C167.029 32.1075 168.337 32.8812 169.622 33.6825L179.146 18.4085C177.623 17.4589 176.076 16.5434 174.504 15.6619L165.699 31.3616ZM169.62 33.6813C170.909 34.4851 172.173 35.3151 173.413 36.171L183.639 21.3578C182.168 20.3427 180.671 19.36 179.148 18.4097L169.62 33.6813ZM173.411 36.1701C174.65 37.0256 175.865 37.9085 177.056 38.8172L187.975 24.5068C186.56 23.4276 185.115 22.3776 183.64 21.3588L173.411 36.1701ZM177.051 38.8129C178.246 39.7261 179.411 40.6595 180.547 41.616L192.138 27.8444C190.777 26.6992 189.391 25.5893 187.98 24.5111L177.051 38.8129ZM180.547 41.616C181.684 42.5728 182.794 43.5539 183.88 44.561L196.12 31.3637C194.825 30.1619 193.498 28.9893 192.138 27.8444L180.547 41.616ZM184.041 31.2176L105.507 100.601L117.424 114.091L195.959 44.7072L184.041 31.2176Z" fill="#FF4E17" mask="url(#path-2-outside-1_305_109)"/>
<circle cx="116.5" cy="50.6562" r="12.5" fill="#FF4E17"/>
</svg>
